<svg version="1.1" xmlns="http://www.w3.org/2000/svg" viewBox="-2677.2480682373043 -1669.8880645751954 10857.984185791016 2784.7680725097657"><desc>Created with Snap</desc><defs></defs><g><g transform="matrix(67.824,0,0,67.824,-2370.0481,-1361.6028)"><g display="none"><rect x="-331.365" y="-102.667" display="inline" fill="#e94b3c" width="473.333" height="236" style=""></rect></g><g display="none"><g display="inline"><g><path d="M30,1.984v28H2v-28H30 M32-0.016H0v32h32V-0.016L32-0.016z" fill="#e94b3c" style=""></path></g></g><g display="inline"><g><polygon fill="#e94b3c" points="10.918,9.09 15.398,16.831 6.439,16.831    " style=""></polygon></g><g><polygon fill="#e94b3c" points="21.082,5.59 25.561,13.331 16.602,13.331    " style=""></polygon></g><g><polygon fill="#e94b3c" points="10.918,18.669 15.398,26.41 6.439,26.41    " style=""></polygon></g><g><polygon points="21.082,15.169 25.561,22.91 16.602,22.91    " fill="#e94b3c" style=""></polygon></g></g></g><g display="none"><g display="inline"><path fill="#e94b3c" d="M31,0.984v30H1v-30H31 M32-0.016H0v32h32V-0.016L32-0.016z" style=""></path></g><g display="inline"><path fill="#e94b3c" d="M10.918,11.087l2.745,4.744h-5.49L10.918,11.087 M10.918,9.09l-4.479,7.741h8.958L10.918,9.09L10.918,9.09    z" style=""></path></g><g display="inline"><path fill="#e94b3c" d="M21.082,7.587l2.745,4.744h-5.49L21.082,7.587 M21.082,5.59l-4.479,7.741h8.958L21.082,5.59L21.082,5.59z" style=""></path></g><g display="inline"><path fill="#e94b3c" d="M10.918,20.666l2.745,4.744h-5.49L10.918,20.666 M10.918,18.669L6.439,26.41h8.958L10.918,18.669    L10.918,18.669z" style=""></path></g><g display="inline"><path fill="#e94b3c" d="M21.082,17.166l2.745,4.744h-5.49L21.082,17.166 M21.082,15.169l-4.479,7.741h8.958L21.082,15.169    L21.082,15.169z" style=""></path></g></g><g display="none"><g display="inline"><g><rect x="0.5" y="0.484" fill="#e94b3c" width="31" height="31" style=""></rect></g><g><g><path d="M31,0.984v30H1v-30H31 M32-0.016H0v32h32V-0.016L32-0.016z" fill="#e94b3c" style=""></path></g></g></g><g display="inline"><g><polygon fill="#e94b3c" points="7.307,16.331 10.918,10.088 14.53,16.331    " style=""></polygon></g><g><g><path d="M10.918,11.087l2.745,4.744h-5.49L10.918,11.087 M10.918,9.09l-4.479,7.741h8.958L10.918,9.09L10.918,9.09z" fill="#e94b3c" style=""></path></g></g></g><g display="inline"><g><polygon fill="#e94b3c" points="17.47,12.831 21.082,6.588 24.693,12.831    " style=""></polygon></g><g><path d="M21.082,7.587l2.745,4.744h-5.49L21.082,7.587 M21.082,5.59l-4.479,7.741h8.958L21.082,5.59L21.082,5.59z" fill="#e94b3c" style=""></path></g></g><g display="inline"><g><polygon fill="#e94b3c" points="7.307,25.91 10.918,19.667 14.53,25.91    " style=""></polygon></g><g><g><path d="M10.918,20.666l2.745,4.744h-5.49L10.918,20.666 M10.918,18.669L6.439,26.41h8.958L10.918,18.669L10.918,18.669z" fill="#e94b3c" style=""></path></g></g></g><g display="inline"><g><polygon fill="#e94b3c" points="17.47,22.41 21.082,16.167 24.693,22.41    " style=""></polygon></g><g><path d="M21.082,17.166l2.745,4.744h-5.49L21.082,17.166 M21.082,15.169l-4.479,7.741h8.958L21.082,15.169L21.082,15.169z" fill="#e94b3c" style=""></path></g></g></g><g><g><path d="M0,31.984h32v-32H0V31.984z M2,1.984h28v28H2V1.984z" fill="#e94b3c" style=""></path><polygon points="6.439,16.831 15.398,16.831 10.918,9.09   " fill="#e94b3c" style=""></polygon><polygon points="16.602,13.331 25.561,13.331 21.082,5.59   " fill="#e94b3c" style=""></polygon><polygon points="6.439,26.41 15.398,26.41 10.918,18.669   " fill="#e94b3c" style=""></polygon><polygon points="16.602,22.91 25.561,22.91 21.082,15.169   " fill="#e94b3c" style=""></polygon></g></g><desc>Created with Snap</desc><defs></defs></g><g><g transform="matrix(1.024,0,0,-1.024,0,0)"><path d="M105 0L105 700L400 700Q511 700 597 656Q683 612 730 532Q778 453 778 350Q778 247 730 167Q683 88 597 44Q511 0 400 0L105 0ZM205 87L394 87Q479 87 543 120Q608 153 643 212Q678 272 678 350Q678 428 643 487Q608 547 543 580Q479 613 394 613L205 613L205 87ZM1009 441Q1034 487 1083 511Q1132 535 1202 535L1202 442Q1194 443 1180 443Q1102 443 1057 396Q1013 350 1013 264L1013 0L917 0L917 530L1009 530L1009 441ZM1554 -6Q1475 -6 1412 29Q1349 64 1313 125Q1278 187 1278 265Q1278 343 1313 404Q1349 466 1412 500Q1475 535 1554 535Q1633 535 1695 500Q1758 466 1793 404Q1829 343 1829 265Q1829 187 1793 125Q1758 64 1695 29Q1633 -6 1554 -6ZM1554 78Q1605 78 1645 101Q1686 125 1709 167Q1732 210 1732 265Q1732 320 1709 362Q1686 405 1645 428Q1605 451 1554 451Q1503 451 1462 428Q1422 405 1398 362Q1375 320 1375 265Q1375 210 1398 167Q1422 125 1462 101Q1503 78 1554 78ZM2360 530L2456 530L2456 0L2365 0L2365 80Q2336 39 2288 16Q2241 -6 2185 -6Q2079 -6 2018 52Q1957 111 1957 225L1957 530L2053 530L2053 236Q2053 159 2090 119Q2127 80 2196 80Q2272 80 2316 126Q2360 172 2360 256L2360 530ZM3055 530L3146 530L3146 72Q3146 -67 3077 -134Q3008 -200 2871 -200Q2796 -200 2728 -180Q2660 -159 2618 -121L2664 -47Q2701 -79 2755 -98Q2810 -116 2868 -116Q2961 -116 3005 -72Q3050 -28 3050 62L3050 104Q3016 63 2966 42Q2917 22 2859 22Q2783 22 2721 54Q2660 87 2625 145Q2590 204 2590 279Q2590 354 2625 412Q2660 471 2721 503Q2783 535 2859 535Q2919 535 2970 513Q3022 491 3055 448L3055 530ZM2870 106Q2922 106 2963 128Q3005 150 3028 189Q3052 229 3052 279Q3052 356 3001 403Q2950 451 2870 451Q2789 451 2738 403Q2687 356 2687 279Q2687 229 2710 189Q2734 150 2775 128Q2817 106 2870 106ZM3612 535Q3713 535 3772 476Q3832 418 3832 305L3832 0L3736 0L3736 294Q3736 371 3699 410Q3662 449 3593 449Q3515 449 3470 403Q3425 358 3425 273L3425 0L3329 0L3329 742L3425 742L3425 455Q3455 493 3503 514Q3552 535 3612 535ZM4163 0L4163 613L3923 613L3923 700L4502 700L4502 613L4262 613L4262 0L4163 0ZM4689 441Q4714 487 4763 511Q4812 535 4882 535L4882 442Q4874 443 4860 443Q4782 443 4737 396Q4693 350 4693 264L4693 0L4597 0L4597 530L4689 530L4689 441ZM5200 535Q5310 535 5368 481Q5427 427 5427 320L5427 0L5336 0L5336 70Q5312 33 5267 13Q5223 -6 5162 -6Q5073 -6 5019 37Q4966 80 4966 150Q4966 220 5017 262Q5068 305 5179 305L5331 305L5331 324Q5331 386 5295 419Q5259 452 5189 452Q5142 452 5097 436Q5052 421 5021 395L4981 467Q5022 500 5079 517Q5136 535 5200 535ZM5178 68Q5233 68 5273 92Q5313 117 5331 162L5331 236L5183 236Q5061 236 5061 154Q5061 114 5092 91Q5123 68 5178 68ZM5836 -6Q5755 -6 5691 29Q5628 64 5592 125Q5556 187 5556 265Q5556 343 5592 404Q5628 466 5691 500Q5755 535 5836 535Q5908 535 5964 506Q6021 477 6052 422L5979 375Q5954 413 5917 432Q5880 451 5835 451Q5783 451 5741 428Q5700 405 5676 362Q5653 320 5653 265Q5653 209 5676 166Q5700 124 5741 101Q5783 78 5835 78Q5880 78 5917 97Q5954 116 5979 154L6052 108Q6021 53 5964 23Q5908 -6 5836 -6ZM6581 0L6382 247L6272 145L6272 0L6176 0L6176 742L6272 742L6272 266L6561 530L6677 530L6454 311L6699 0L6581 0ZM7271 262Q7271 251 7269 233L6839 233Q6848 163 6900 120Q6953 78 7031 78Q7126 78 7184 142L7237 80Q7201 38 7147 16Q7094 -6 7028 -6Q6944 -6 6879 28Q6814 63 6778 125Q6743 187 6743 265Q6743 342 6777 404Q6812 466 6872 500Q6933 535 7009 535Q7085 535 7144 500Q7204 466 7237 404Q7271 342 7271 262ZM7009 454Q6940 454 6893 412Q6847 370 6839 302L7179 302Q7171 369 7124 411Q7078 454 7009 454ZM7496 441Q7521 487 7570 511Q7619 535 7689 535L7689 442Q7681 443 7667 443Q7589 443 7544 396Q7500 350 7500 264L7500 0L7404 0L7404 530L7496 530L7496 441Z" fill="#2d2926" style=""></path></g></g></g></svg>